<svg xmlns="http://www.w3.org/2000/svg" width="134" height="28" viewBox="0 0 134 28"><title>nortialogo</title><rect width="134" height="28" fill="#fff"/><path d="M21,2.42v25H16L6.75,9.79,7,27.42H2L1.95,3,6,3,16,19.42v-17h5Z" transform="translate(0 0)" fill="#625a6d"/><path d="M51,14.92c0,8.48-5.56,12.5-12,12.5s-12-4-12-12.5,5.56-12.5,12-12.5S51,6.43,51,14.92Zm-19-.5c0,5.8,3.18,8.81,7,8.81s7.2-2.51,7.2-8.31-3.38-8.5-7.2-8.5S32,8.62,32,14.42Z" transform="translate(0 0)" fill="#625a6d"/><path d="M67.91,16.23l7.16,11.19H69l-6-11H61v11H55.92v-25H65.1c5,0,7.9,2.86,7.9,7A7,7,0,0,1,67.91,16.23Zm0.18-6.71A2.92,2.92,0,0,0,65,6.42H61v6l4.14-.07C66.83,12.35,68.09,11.56,68.09,9.52Z" transform="translate(0 0)" fill="#625a6d"/><path d="M77,2.42H96v4H89v21H84v-21H77v-4Z" transform="translate(0 0)" fill="#625a6d"/><path d="M106,27.42h-5v-25h5v25Z" transform="translate(0 0)" fill="#625a6d"/><path d="M126,21.42h-8l-2,6h-5l8.79-25h4.52l8.69,25h-5Zm-6.53-4.51h5.33l-2.66-8.48Z" transform="translate(0 0)" fill="#625a6d"/><path d="M20,1.42v25H15L5.71,9.92v16.5H1v-25H6l9.32,16.5V1.42H20Z" transform="translate(0 0)" fill="#ccffe8"/><path d="M50,13.92c0,8.48-5.56,12.5-12,12.5s-12-4-12-12.5,5.56-12.5,12-12.5S50,5.43,50,13.92Zm-19.2,0c0,5.8,3.38,8.31,7.2,8.31s7.2-2.51,7.2-8.31S41.82,5.61,38,5.61,30.8,8.12,30.8,13.92Z" transform="translate(0 0)" fill="#ccffe8"/><path d="M67,15.42l7,11H68l-6-11H60v11H55v-25h9.12c5,0,7.88,2.86,7.88,7A7.14,7.14,0,0,1,67,15.42Zm0-7a2.77,2.77,0,0,0-3-3H60v6h4A2.77,2.77,0,0,0,67,8.42Z" transform="translate(0 0)" fill="#ccffe8"/><path d="M76,1.42H95V5.7H87.88V26.42H83.12V5.7H76V1.42Z" transform="translate(0 0)" fill="#ccffe8"/><path d="M105,26.42h-5v-25h5v25Z" transform="translate(0 0)" fill="#ccffe8"/><path d="M125,20.52H117l-1.86,5.89H110l8.63-25h4.73l8.63,25h-5.1Zm-6.74-4.29h5.39L121,7.56Z" transform="translate(0 0)" fill="#ccffe8"/></svg>